G04 #@! TF.GenerationSoftware,KiCad,Pcbnew,(5.1.8-0-10_14)*
G04 #@! TF.CreationDate,2021-10-06T14:58:47+02:00*
G04 #@! TF.ProjectId,ATmega328P-Barebone,41546d65-6761-4333-9238-502d42617265,rev?*
G04 #@! TF.SameCoordinates,Original*
G04 #@! TF.FileFunction,Legend,Top*
G04 #@! TF.FilePolarity,Positive*
%FSLAX46Y46*%
G04 Gerber Fmt 4.6, Leading zero omitted, Abs format (unit mm)*
G04 Created by KiCad (PCBNEW (5.1.8-0-10_14)) date 2021-10-06 14:58:47*
%MOMM*%
%LPD*%
G01*
G04 APERTURE LIST*
%ADD10C,0.150000*%
%ADD11C,0.120000*%
G04 APERTURE END LIST*
D10*
X170604761Y-76876190D02*
X170604761Y-77066666D01*
X170652380Y-77066666D02*
X170652380Y-76876190D01*
X170700000Y-76828571D02*
X170700000Y-77114285D01*
X170747619Y-77066666D02*
X170747619Y-76876190D01*
X170795238Y-76876190D02*
X170795238Y-77066666D01*
X170604761Y-77019047D02*
X170700000Y-77114285D01*
X170795238Y-77019047D01*
X170604761Y-76923809D02*
X170700000Y-76828571D01*
X170795238Y-76923809D01*
X170604761Y-76876190D02*
X170700000Y-76828571D01*
X170795238Y-76876190D01*
X170842857Y-76971428D01*
X170795238Y-77066666D01*
X170700000Y-77114285D01*
X170604761Y-77066666D01*
X170557142Y-76971428D01*
X170604761Y-76876190D01*
X166123809Y-79152380D02*
X166123809Y-78152380D01*
X166552380Y-79104761D02*
X166695238Y-79152380D01*
X166933333Y-79152380D01*
X167028571Y-79104761D01*
X167076190Y-79057142D01*
X167123809Y-78961904D01*
X167123809Y-78866666D01*
X167076190Y-78771428D01*
X167028571Y-78723809D01*
X166933333Y-78676190D01*
X166742857Y-78628571D01*
X166647619Y-78580952D01*
X166600000Y-78533333D01*
X166552380Y-78438095D01*
X166552380Y-78342857D01*
X166600000Y-78247619D01*
X166647619Y-78200000D01*
X166742857Y-78152380D01*
X166980952Y-78152380D01*
X167123809Y-78200000D01*
X167552380Y-79152380D02*
X167552380Y-78152380D01*
X167933333Y-78152380D01*
X168028571Y-78200000D01*
X168076190Y-78247619D01*
X168123809Y-78342857D01*
X168123809Y-78485714D01*
X168076190Y-78580952D01*
X168028571Y-78628571D01*
X167933333Y-78676190D01*
X167552380Y-78676190D01*
X164590476Y-85952380D02*
X164590476Y-84952380D01*
X164971428Y-84952380D01*
X165066666Y-85000000D01*
X165114285Y-85047619D01*
X165161904Y-85142857D01*
X165161904Y-85285714D01*
X165114285Y-85380952D01*
X165066666Y-85428571D01*
X164971428Y-85476190D01*
X164590476Y-85476190D01*
X165780952Y-84952380D02*
X165971428Y-84952380D01*
X166066666Y-85000000D01*
X166161904Y-85095238D01*
X166209523Y-85285714D01*
X166209523Y-85619047D01*
X166161904Y-85809523D01*
X166066666Y-85904761D01*
X165971428Y-85952380D01*
X165780952Y-85952380D01*
X165685714Y-85904761D01*
X165590476Y-85809523D01*
X165542857Y-85619047D01*
X165542857Y-85285714D01*
X165590476Y-85095238D01*
X165685714Y-85000000D01*
X165780952Y-84952380D01*
X166542857Y-84952380D02*
X166780952Y-85952380D01*
X166971428Y-85238095D01*
X167161904Y-85952380D01*
X167400000Y-84952380D01*
X167780952Y-85428571D02*
X168114285Y-85428571D01*
X168257142Y-85952380D02*
X167780952Y-85952380D01*
X167780952Y-84952380D01*
X168257142Y-84952380D01*
X169257142Y-85952380D02*
X168923809Y-85476190D01*
X168685714Y-85952380D02*
X168685714Y-84952380D01*
X169066666Y-84952380D01*
X169161904Y-85000000D01*
X169209523Y-85047619D01*
X169257142Y-85142857D01*
X169257142Y-85285714D01*
X169209523Y-85380952D01*
X169161904Y-85428571D01*
X169066666Y-85476190D01*
X168685714Y-85476190D01*
D11*
X149150000Y-81500000D02*
X149150000Y-65525000D01*
X149150000Y-65525000D02*
X144050000Y-65525000D01*
X144050000Y-65525000D02*
X144050000Y-81500000D01*
D10*
X153275000Y-68875000D02*
X153275000Y-69100000D01*
X160525000Y-68875000D02*
X160525000Y-69200000D01*
X160525000Y-76125000D02*
X160525000Y-75800000D01*
X153275000Y-76125000D02*
X153275000Y-75800000D01*
X153275000Y-68875000D02*
X153600000Y-68875000D01*
X153275000Y-76125000D02*
X153600000Y-76125000D01*
X160525000Y-76125000D02*
X160200000Y-76125000D01*
X160525000Y-68875000D02*
X160200000Y-68875000D01*
X153275000Y-69100000D02*
X151850000Y-69100000D01*
D11*
X155072936Y-65265000D02*
X155527064Y-65265000D01*
X155072936Y-66735000D02*
X155527064Y-66735000D01*
X169730000Y-69390000D02*
X164530000Y-69390000D01*
X169730000Y-74530000D02*
X169730000Y-69390000D01*
X164530000Y-77130000D02*
X164530000Y-69390000D01*
X169730000Y-74530000D02*
X167130000Y-74530000D01*
X167130000Y-74530000D02*
X167130000Y-77130000D01*
X167130000Y-77130000D02*
X164530000Y-77130000D01*
X169730000Y-75800000D02*
X169730000Y-77130000D01*
X169730000Y-77130000D02*
X168400000Y-77130000D01*
X141638748Y-76165000D02*
X142161252Y-76165000D01*
X141638748Y-77635000D02*
X142161252Y-77635000D01*
X141638748Y-74165000D02*
X142161252Y-74165000D01*
X141638748Y-75635000D02*
X142161252Y-75635000D01*
X151035000Y-72038748D02*
X151035000Y-72561252D01*
X149565000Y-72038748D02*
X149565000Y-72561252D01*
X164630000Y-81170000D02*
X164630000Y-83830000D01*
X167230000Y-81170000D02*
X164630000Y-81170000D01*
X167230000Y-83830000D02*
X164630000Y-83830000D01*
X167230000Y-81170000D02*
X167230000Y-83830000D01*
X168500000Y-81170000D02*
X169830000Y-81170000D01*
X169830000Y-81170000D02*
X169830000Y-82500000D01*
D10*
X146123809Y-75576190D02*
X146123809Y-76052380D01*
X145790476Y-75052380D02*
X146123809Y-75576190D01*
X146457142Y-75052380D01*
X147314285Y-76052380D02*
X146742857Y-76052380D01*
X147028571Y-76052380D02*
X147028571Y-75052380D01*
X146933333Y-75195238D01*
X146838095Y-75290476D01*
X146742857Y-75338095D01*
X156038095Y-71952380D02*
X156038095Y-72761904D01*
X156085714Y-72857142D01*
X156133333Y-72904761D01*
X156228571Y-72952380D01*
X156419047Y-72952380D01*
X156514285Y-72904761D01*
X156561904Y-72857142D01*
X156609523Y-72761904D01*
X156609523Y-71952380D01*
X157609523Y-72952380D02*
X157038095Y-72952380D01*
X157323809Y-72952380D02*
X157323809Y-71952380D01*
X157228571Y-72095238D01*
X157133333Y-72190476D01*
X157038095Y-72238095D01*
M02*
