G04 #@! TF.GenerationSoftware,KiCad,Pcbnew,(5.1.8-0-10_14)*
G04 #@! TF.CreationDate,2021-10-06T14:58:47+02:00*
G04 #@! TF.ProjectId,ATmega328P-Barebone,41546d65-6761-4333-9238-502d42617265,rev?*
G04 #@! TF.SameCoordinates,Original*
G04 #@! TF.FileFunction,Copper,L1,Top*
G04 #@! TF.FilePolarity,Positive*
%FSLAX46Y46*%
G04 Gerber Fmt 4.6, Leading zero omitted, Abs format (unit mm)*
G04 Created by KiCad (PCBNEW (5.1.8-0-10_14)) date 2021-10-06 14:58:47*
%MOMM*%
%LPD*%
G01*
G04 APERTURE LIST*
G04 #@! TA.AperFunction,SMDPad,CuDef*
%ADD10R,2.000000X7.875000*%
G04 #@! TD*
G04 #@! TA.AperFunction,SMDPad,CuDef*
%ADD11R,0.550000X1.600000*%
G04 #@! TD*
G04 #@! TA.AperFunction,SMDPad,CuDef*
%ADD12R,1.600000X0.550000*%
G04 #@! TD*
G04 #@! TA.AperFunction,ComponentPad*
%ADD13O,1.700000X1.700000*%
G04 #@! TD*
G04 #@! TA.AperFunction,ComponentPad*
%ADD14R,1.700000X1.700000*%
G04 #@! TD*
G04 #@! TA.AperFunction,ViaPad*
%ADD15C,0.800000*%
G04 #@! TD*
G04 #@! TA.AperFunction,Conductor*
%ADD16C,0.400000*%
G04 #@! TD*
G04 #@! TA.AperFunction,Conductor*
%ADD17C,0.254000*%
G04 #@! TD*
G04 #@! TA.AperFunction,Conductor*
%ADD18C,0.100000*%
G04 #@! TD*
G04 APERTURE END LIST*
D10*
X146600000Y-81537500D03*
X146600000Y-69662500D03*
D11*
X154100000Y-68250000D03*
X154900000Y-68250000D03*
X155700000Y-68250000D03*
X156500000Y-68250000D03*
X157300000Y-68250000D03*
X158100000Y-68250000D03*
X158900000Y-68250000D03*
X159700000Y-68250000D03*
D12*
X161150000Y-69700000D03*
X161150000Y-70500000D03*
X161150000Y-71300000D03*
X161150000Y-72100000D03*
X161150000Y-72900000D03*
X161150000Y-73700000D03*
X161150000Y-74500000D03*
X161150000Y-75300000D03*
D11*
X159700000Y-76750000D03*
X158900000Y-76750000D03*
X158100000Y-76750000D03*
X157300000Y-76750000D03*
X156500000Y-76750000D03*
X155700000Y-76750000D03*
X154900000Y-76750000D03*
X154100000Y-76750000D03*
D12*
X152650000Y-75300000D03*
X152650000Y-74500000D03*
X152650000Y-73700000D03*
X152650000Y-72900000D03*
X152650000Y-72100000D03*
X152650000Y-71300000D03*
X152650000Y-70500000D03*
X152650000Y-69700000D03*
G04 #@! TA.AperFunction,SMDPad,CuDef*
G36*
G01*
X155700000Y-66450001D02*
X155700000Y-65549999D01*
G75*
G02*
X155949999Y-65300000I249999J0D01*
G01*
X156650001Y-65300000D01*
G75*
G02*
X156900000Y-65549999I0J-249999D01*
G01*
X156900000Y-66450001D01*
G75*
G02*
X156650001Y-66700000I-249999J0D01*
G01*
X155949999Y-66700000D01*
G75*
G02*
X155700000Y-66450001I0J249999D01*
G01*
G37*
G04 #@! TD.AperFunction*
G04 #@! TA.AperFunction,SMDPad,CuDef*
G36*
G01*
X153700000Y-66450001D02*
X153700000Y-65549999D01*
G75*
G02*
X153949999Y-65300000I249999J0D01*
G01*
X154650001Y-65300000D01*
G75*
G02*
X154900000Y-65549999I0J-249999D01*
G01*
X154900000Y-66450001D01*
G75*
G02*
X154650001Y-66700000I-249999J0D01*
G01*
X153949999Y-66700000D01*
G75*
G02*
X153700000Y-66450001I0J249999D01*
G01*
G37*
G04 #@! TD.AperFunction*
D13*
X165860000Y-70720000D03*
X168400000Y-70720000D03*
X165860000Y-73260000D03*
X168400000Y-73260000D03*
X165860000Y-75800000D03*
D14*
X168400000Y-75800000D03*
G04 #@! TA.AperFunction,SMDPad,CuDef*
G36*
G01*
X142350000Y-77375000D02*
X142350000Y-76425000D01*
G75*
G02*
X142600000Y-76175000I250000J0D01*
G01*
X143275000Y-76175000D01*
G75*
G02*
X143525000Y-76425000I0J-250000D01*
G01*
X143525000Y-77375000D01*
G75*
G02*
X143275000Y-77625000I-250000J0D01*
G01*
X142600000Y-77625000D01*
G75*
G02*
X142350000Y-77375000I0J250000D01*
G01*
G37*
G04 #@! TD.AperFunction*
G04 #@! TA.AperFunction,SMDPad,CuDef*
G36*
G01*
X140275000Y-77375000D02*
X140275000Y-76425000D01*
G75*
G02*
X140525000Y-76175000I250000J0D01*
G01*
X141200000Y-76175000D01*
G75*
G02*
X141450000Y-76425000I0J-250000D01*
G01*
X141450000Y-77375000D01*
G75*
G02*
X141200000Y-77625000I-250000J0D01*
G01*
X140525000Y-77625000D01*
G75*
G02*
X140275000Y-77375000I0J250000D01*
G01*
G37*
G04 #@! TD.AperFunction*
G04 #@! TA.AperFunction,SMDPad,CuDef*
G36*
G01*
X142350000Y-75375000D02*
X142350000Y-74425000D01*
G75*
G02*
X142600000Y-74175000I250000J0D01*
G01*
X143275000Y-74175000D01*
G75*
G02*
X143525000Y-74425000I0J-250000D01*
G01*
X143525000Y-75375000D01*
G75*
G02*
X143275000Y-75625000I-250000J0D01*
G01*
X142600000Y-75625000D01*
G75*
G02*
X142350000Y-75375000I0J250000D01*
G01*
G37*
G04 #@! TD.AperFunction*
G04 #@! TA.AperFunction,SMDPad,CuDef*
G36*
G01*
X140275000Y-75375000D02*
X140275000Y-74425000D01*
G75*
G02*
X140525000Y-74175000I250000J0D01*
G01*
X141200000Y-74175000D01*
G75*
G02*
X141450000Y-74425000I0J-250000D01*
G01*
X141450000Y-75375000D01*
G75*
G02*
X141200000Y-75625000I-250000J0D01*
G01*
X140525000Y-75625000D01*
G75*
G02*
X140275000Y-75375000I0J250000D01*
G01*
G37*
G04 #@! TD.AperFunction*
G04 #@! TA.AperFunction,SMDPad,CuDef*
G36*
G01*
X149825000Y-72750000D02*
X150775000Y-72750000D01*
G75*
G02*
X151025000Y-73000000I0J-250000D01*
G01*
X151025000Y-73675000D01*
G75*
G02*
X150775000Y-73925000I-250000J0D01*
G01*
X149825000Y-73925000D01*
G75*
G02*
X149575000Y-73675000I0J250000D01*
G01*
X149575000Y-73000000D01*
G75*
G02*
X149825000Y-72750000I250000J0D01*
G01*
G37*
G04 #@! TD.AperFunction*
G04 #@! TA.AperFunction,SMDPad,CuDef*
G36*
G01*
X149825000Y-70675000D02*
X150775000Y-70675000D01*
G75*
G02*
X151025000Y-70925000I0J-250000D01*
G01*
X151025000Y-71600000D01*
G75*
G02*
X150775000Y-71850000I-250000J0D01*
G01*
X149825000Y-71850000D01*
G75*
G02*
X149575000Y-71600000I0J250000D01*
G01*
X149575000Y-70925000D01*
G75*
G02*
X149825000Y-70675000I250000J0D01*
G01*
G37*
G04 #@! TD.AperFunction*
D13*
X165960000Y-82500000D03*
D14*
X168500000Y-82500000D03*
D15*
X152700000Y-68100000D03*
X154628910Y-72100010D03*
X158900000Y-75300000D03*
X163300000Y-76900000D03*
X161200000Y-76900000D03*
D16*
X164480000Y-72100000D02*
X165860000Y-70720000D01*
X161150000Y-72100000D02*
X164480000Y-72100000D01*
X156100000Y-72100000D02*
X161150000Y-72100000D01*
X152650000Y-71300000D02*
X155300000Y-71300000D01*
X155300000Y-71300000D02*
X156100000Y-72100000D01*
X150737500Y-72900000D02*
X152650000Y-72900000D01*
X150300000Y-73337500D02*
X150737500Y-72900000D01*
X151449999Y-71095001D02*
X151449999Y-70680743D01*
X151654998Y-71300000D02*
X151449999Y-71095001D01*
X151449999Y-70680743D02*
X150669256Y-69900000D01*
X152650000Y-71300000D02*
X151654998Y-71300000D01*
X149174990Y-72212490D02*
X150300000Y-73337500D01*
X149174990Y-70655754D02*
X149174990Y-72212490D01*
X149930744Y-69900000D02*
X149174990Y-70655754D01*
X150669256Y-69900000D02*
X149930744Y-69900000D01*
X151137500Y-72100000D02*
X152650000Y-72100000D01*
X150300000Y-71262500D02*
X151137500Y-72100000D01*
X153850001Y-72304999D02*
X153645002Y-72100000D01*
X153645002Y-73700000D02*
X153850001Y-73495001D01*
X153645002Y-72100000D02*
X152650000Y-72100000D01*
X153850001Y-73495001D02*
X153850001Y-72304999D01*
X152650000Y-73700000D02*
X153645002Y-73700000D01*
X160154998Y-74500000D02*
X161150000Y-74500000D01*
X159354998Y-73700000D02*
X160154998Y-74500000D01*
X152650000Y-73700000D02*
X159354998Y-73700000D01*
X163445002Y-75800000D02*
X165860000Y-75800000D01*
X162145002Y-74500000D02*
X163445002Y-75800000D01*
X161150000Y-74500000D02*
X162145002Y-74500000D01*
X165960000Y-75900000D02*
X165860000Y-75800000D01*
X165960000Y-82500000D02*
X165960000Y-75900000D01*
X152700000Y-67600000D02*
X152700000Y-68100000D01*
X154300000Y-66000000D02*
X152700000Y-67600000D01*
X152650000Y-72100000D02*
X154628900Y-72100000D01*
X154628900Y-72100000D02*
X154628910Y-72100010D01*
X146600000Y-73900000D02*
X146600000Y-69662500D01*
X146600000Y-74100000D02*
X146600000Y-73900000D01*
X145800000Y-74900000D02*
X146600000Y-74100000D01*
X142937500Y-74900000D02*
X145800000Y-74900000D01*
X147000000Y-74500000D02*
X152650000Y-74500000D01*
X146600000Y-74100000D02*
X147000000Y-74500000D01*
X147825000Y-75300000D02*
X152650000Y-75300000D01*
X146600000Y-76525000D02*
X147825000Y-75300000D01*
X146600000Y-81537500D02*
X146600000Y-76525000D01*
X146600000Y-77000000D02*
X146600000Y-81537500D01*
X146500000Y-76900000D02*
X146600000Y-77000000D01*
X142937500Y-76900000D02*
X146500000Y-76900000D01*
X156500000Y-66200000D02*
X156500000Y-68250000D01*
X156300000Y-66000000D02*
X156500000Y-66200000D01*
X163680000Y-66000000D02*
X168400000Y-70720000D01*
X156300000Y-66000000D02*
X163680000Y-66000000D01*
X158900000Y-76750000D02*
X158900000Y-75300000D01*
X161700000Y-75300000D02*
X163300000Y-76900000D01*
X161150000Y-75300000D02*
X161700000Y-75300000D01*
X161050000Y-76750000D02*
X161200000Y-76900000D01*
X159700000Y-76750000D02*
X161050000Y-76750000D01*
D17*
X159401357Y-49626197D02*
X161247660Y-49934291D01*
X163062216Y-50393799D01*
X164832628Y-51001582D01*
X166546803Y-51753489D01*
X168193031Y-52644383D01*
X169760067Y-53668179D01*
X171237207Y-54817883D01*
X172614359Y-56085641D01*
X173882117Y-57462793D01*
X175031821Y-58939933D01*
X176055617Y-60506969D01*
X176946511Y-62153197D01*
X177698418Y-63867372D01*
X178306201Y-65637784D01*
X178765709Y-67452340D01*
X179073803Y-69298643D01*
X179228377Y-71164083D01*
X179228377Y-73035917D01*
X179073803Y-74901357D01*
X178765709Y-76747660D01*
X178306201Y-78562216D01*
X177698418Y-80332628D01*
X176946511Y-82046803D01*
X176055617Y-83693031D01*
X175031821Y-85260067D01*
X173882117Y-86737207D01*
X172614359Y-88114359D01*
X171237207Y-89382117D01*
X169760067Y-90531821D01*
X168193031Y-91555617D01*
X166546803Y-92446511D01*
X164832628Y-93198418D01*
X163062216Y-93806201D01*
X161247660Y-94265709D01*
X159401357Y-94573803D01*
X157535917Y-94728377D01*
X155664083Y-94728377D01*
X153798643Y-94573803D01*
X151952340Y-94265709D01*
X150137784Y-93806201D01*
X148367372Y-93198418D01*
X146653197Y-92446511D01*
X145236573Y-91679872D01*
X154565000Y-91679872D01*
X154565000Y-92120128D01*
X154650890Y-92551925D01*
X154819369Y-92958669D01*
X155063962Y-93324729D01*
X155375271Y-93636038D01*
X155741331Y-93880631D01*
X156148075Y-94049110D01*
X156579872Y-94135000D01*
X157020128Y-94135000D01*
X157451925Y-94049110D01*
X157858669Y-93880631D01*
X158224729Y-93636038D01*
X158536038Y-93324729D01*
X158780631Y-92958669D01*
X158949110Y-92551925D01*
X159035000Y-92120128D01*
X159035000Y-91679872D01*
X158949110Y-91248075D01*
X158780631Y-90841331D01*
X158536038Y-90475271D01*
X158224729Y-90163962D01*
X157858669Y-89919369D01*
X157451925Y-89750890D01*
X157020128Y-89665000D01*
X156579872Y-89665000D01*
X156148075Y-89750890D01*
X155741331Y-89919369D01*
X155375271Y-90163962D01*
X155063962Y-90475271D01*
X154819369Y-90841331D01*
X154650890Y-91248075D01*
X154565000Y-91679872D01*
X145236573Y-91679872D01*
X145006969Y-91555617D01*
X143439933Y-90531821D01*
X141962793Y-89382117D01*
X140585641Y-88114359D01*
X139317883Y-86737207D01*
X138168179Y-85260067D01*
X137144383Y-83693031D01*
X136253489Y-82046803D01*
X135501582Y-80332628D01*
X134893799Y-78562216D01*
X134656464Y-77625000D01*
X139636928Y-77625000D01*
X139649188Y-77749482D01*
X139685498Y-77869180D01*
X139744463Y-77979494D01*
X139823815Y-78076185D01*
X139920506Y-78155537D01*
X140030820Y-78214502D01*
X140150518Y-78250812D01*
X140275000Y-78263072D01*
X140576750Y-78260000D01*
X140735500Y-78101250D01*
X140735500Y-77027000D01*
X139798750Y-77027000D01*
X139640000Y-77185750D01*
X139636928Y-77625000D01*
X134656464Y-77625000D01*
X134434291Y-76747660D01*
X134246952Y-75625000D01*
X139636928Y-75625000D01*
X139649188Y-75749482D01*
X139685498Y-75869180D01*
X139701972Y-75900000D01*
X139685498Y-75930820D01*
X139649188Y-76050518D01*
X139636928Y-76175000D01*
X139640000Y-76614250D01*
X139798750Y-76773000D01*
X140735500Y-76773000D01*
X140735500Y-75027000D01*
X139798750Y-75027000D01*
X139640000Y-75185750D01*
X139636928Y-75625000D01*
X134246952Y-75625000D01*
X134126197Y-74901357D01*
X133971623Y-73035917D01*
X133971623Y-71779872D01*
X134665000Y-71779872D01*
X134665000Y-72220128D01*
X134750890Y-72651925D01*
X134919369Y-73058669D01*
X135163962Y-73424729D01*
X135475271Y-73736038D01*
X135841331Y-73980631D01*
X136248075Y-74149110D01*
X136679872Y-74235000D01*
X137120128Y-74235000D01*
X137421767Y-74175000D01*
X139636928Y-74175000D01*
X139640000Y-74614250D01*
X139798750Y-74773000D01*
X140735500Y-74773000D01*
X140735500Y-73698750D01*
X140989500Y-73698750D01*
X140989500Y-74773000D01*
X141009500Y-74773000D01*
X141009500Y-75027000D01*
X140989500Y-75027000D01*
X140989500Y-76773000D01*
X141009500Y-76773000D01*
X141009500Y-77027000D01*
X140989500Y-77027000D01*
X140989500Y-78101250D01*
X141148250Y-78260000D01*
X141450000Y-78263072D01*
X141574482Y-78250812D01*
X141694180Y-78214502D01*
X141804494Y-78155537D01*
X141901185Y-78076185D01*
X141966658Y-77996406D01*
X141972038Y-78002962D01*
X142106614Y-78113405D01*
X142260150Y-78195472D01*
X142426746Y-78246008D01*
X142600000Y-78263072D01*
X143275000Y-78263072D01*
X143448254Y-78246008D01*
X143614850Y-78195472D01*
X143768386Y-78113405D01*
X143902962Y-78002962D01*
X144013405Y-77868386D01*
X144084702Y-77735000D01*
X144961928Y-77735000D01*
X144961928Y-85475000D01*
X144974188Y-85599482D01*
X145010498Y-85719180D01*
X145069463Y-85829494D01*
X145148815Y-85926185D01*
X145245506Y-86005537D01*
X145355820Y-86064502D01*
X145475518Y-86100812D01*
X145600000Y-86113072D01*
X147600000Y-86113072D01*
X147724482Y-86100812D01*
X147844180Y-86064502D01*
X147954494Y-86005537D01*
X148051185Y-85926185D01*
X148130537Y-85829494D01*
X148189502Y-85719180D01*
X148225812Y-85599482D01*
X148238072Y-85475000D01*
X148238072Y-77600000D01*
X148225812Y-77475518D01*
X148189502Y-77355820D01*
X148130537Y-77245506D01*
X148051185Y-77148815D01*
X147954494Y-77069463D01*
X147844180Y-77010498D01*
X147724482Y-76974188D01*
X147600000Y-76961928D01*
X147435289Y-76961928D01*
X147435000Y-76958991D01*
X147435000Y-76870867D01*
X148170869Y-76135000D01*
X151550627Y-76135000D01*
X151605820Y-76164502D01*
X151725518Y-76200812D01*
X151850000Y-76213072D01*
X153186928Y-76213072D01*
X153186928Y-77550000D01*
X153199188Y-77674482D01*
X153235498Y-77794180D01*
X153294463Y-77904494D01*
X153373815Y-78001185D01*
X153470506Y-78080537D01*
X153580820Y-78139502D01*
X153700518Y-78175812D01*
X153825000Y-78188072D01*
X154375000Y-78188072D01*
X154499482Y-78175812D01*
X154500000Y-78175655D01*
X154500518Y-78175812D01*
X154625000Y-78188072D01*
X155175000Y-78188072D01*
X155299482Y-78175812D01*
X155300000Y-78175655D01*
X155300518Y-78175812D01*
X155425000Y-78188072D01*
X155975000Y-78188072D01*
X156099482Y-78175812D01*
X156100000Y-78175655D01*
X156100518Y-78175812D01*
X156225000Y-78188072D01*
X156775000Y-78188072D01*
X156899482Y-78175812D01*
X156900000Y-78175655D01*
X156900518Y-78175812D01*
X157025000Y-78188072D01*
X157575000Y-78188072D01*
X157699482Y-78175812D01*
X157700000Y-78175655D01*
X157700518Y-78175812D01*
X157825000Y-78188072D01*
X158375000Y-78188072D01*
X158499482Y-78175812D01*
X158500000Y-78175655D01*
X158500518Y-78175812D01*
X158625000Y-78188072D01*
X159175000Y-78188072D01*
X159299482Y-78175812D01*
X159300000Y-78175655D01*
X159300518Y-78175812D01*
X159425000Y-78188072D01*
X159975000Y-78188072D01*
X160099482Y-78175812D01*
X160219180Y-78139502D01*
X160329494Y-78080537D01*
X160426185Y-78001185D01*
X160505537Y-77904494D01*
X160564502Y-77794180D01*
X160583172Y-77732633D01*
X160709744Y-77817205D01*
X160898102Y-77895226D01*
X161098061Y-77935000D01*
X161301939Y-77935000D01*
X161501898Y-77895226D01*
X161690256Y-77817205D01*
X161859774Y-77703937D01*
X162003937Y-77559774D01*
X162117205Y-77390256D01*
X162195226Y-77201898D01*
X162232689Y-77013557D01*
X162275908Y-77056776D01*
X162304774Y-77201898D01*
X162382795Y-77390256D01*
X162496063Y-77559774D01*
X162640226Y-77703937D01*
X162809744Y-77817205D01*
X162998102Y-77895226D01*
X163198061Y-77935000D01*
X163401939Y-77935000D01*
X163601898Y-77895226D01*
X163790256Y-77817205D01*
X163959774Y-77703937D01*
X164103937Y-77559774D01*
X164217205Y-77390256D01*
X164295226Y-77201898D01*
X164335000Y-77001939D01*
X164335000Y-76798061D01*
X164302565Y-76635000D01*
X164631935Y-76635000D01*
X164706525Y-76746632D01*
X164913368Y-76953475D01*
X165125001Y-77094883D01*
X165125000Y-81271935D01*
X165013368Y-81346525D01*
X164806525Y-81553368D01*
X164644010Y-81796589D01*
X164532068Y-82066842D01*
X164475000Y-82353740D01*
X164475000Y-82646260D01*
X164532068Y-82933158D01*
X164644010Y-83203411D01*
X164806525Y-83446632D01*
X165013368Y-83653475D01*
X165256589Y-83815990D01*
X165526842Y-83927932D01*
X165813740Y-83985000D01*
X166106260Y-83985000D01*
X166393158Y-83927932D01*
X166663411Y-83815990D01*
X166906632Y-83653475D01*
X167038487Y-83521620D01*
X167060498Y-83594180D01*
X167119463Y-83704494D01*
X167198815Y-83801185D01*
X167295506Y-83880537D01*
X167405820Y-83939502D01*
X167525518Y-83975812D01*
X167650000Y-83988072D01*
X168214250Y-83985000D01*
X168373000Y-83826250D01*
X168373000Y-82627000D01*
X168627000Y-82627000D01*
X168627000Y-83826250D01*
X168785750Y-83985000D01*
X169350000Y-83988072D01*
X169474482Y-83975812D01*
X169594180Y-83939502D01*
X169704494Y-83880537D01*
X169801185Y-83801185D01*
X169880537Y-83704494D01*
X169939502Y-83594180D01*
X169975812Y-83474482D01*
X169988072Y-83350000D01*
X169985000Y-82785750D01*
X169826250Y-82627000D01*
X168627000Y-82627000D01*
X168373000Y-82627000D01*
X168353000Y-82627000D01*
X168353000Y-82373000D01*
X168373000Y-82373000D01*
X168373000Y-81173750D01*
X168627000Y-81173750D01*
X168627000Y-82373000D01*
X169826250Y-82373000D01*
X169985000Y-82214250D01*
X169988072Y-81650000D01*
X169975812Y-81525518D01*
X169939502Y-81405820D01*
X169880537Y-81295506D01*
X169801185Y-81198815D01*
X169704494Y-81119463D01*
X169594180Y-81060498D01*
X169474482Y-81024188D01*
X169350000Y-81011928D01*
X168785750Y-81015000D01*
X168627000Y-81173750D01*
X168373000Y-81173750D01*
X168214250Y-81015000D01*
X167650000Y-81011928D01*
X167525518Y-81024188D01*
X167405820Y-81060498D01*
X167295506Y-81119463D01*
X167198815Y-81198815D01*
X167119463Y-81295506D01*
X167060498Y-81405820D01*
X167038487Y-81478380D01*
X166906632Y-81346525D01*
X166795000Y-81271935D01*
X166795000Y-76961247D01*
X166806632Y-76953475D01*
X166938487Y-76821620D01*
X166960498Y-76894180D01*
X167019463Y-77004494D01*
X167098815Y-77101185D01*
X167195506Y-77180537D01*
X167305820Y-77239502D01*
X167425518Y-77275812D01*
X167550000Y-77288072D01*
X169250000Y-77288072D01*
X169374482Y-77275812D01*
X169494180Y-77239502D01*
X169604494Y-77180537D01*
X169701185Y-77101185D01*
X169780537Y-77004494D01*
X169839502Y-76894180D01*
X169875812Y-76774482D01*
X169888072Y-76650000D01*
X169888072Y-74950000D01*
X169875812Y-74825518D01*
X169839502Y-74705820D01*
X169780537Y-74595506D01*
X169701185Y-74498815D01*
X169604494Y-74419463D01*
X169494180Y-74360498D01*
X169421620Y-74338487D01*
X169553475Y-74206632D01*
X169715990Y-73963411D01*
X169827932Y-73693158D01*
X169885000Y-73406260D01*
X169885000Y-73113740D01*
X169827932Y-72826842D01*
X169715990Y-72556589D01*
X169553475Y-72313368D01*
X169346632Y-72106525D01*
X169172240Y-71990000D01*
X169346632Y-71873475D01*
X169440235Y-71779872D01*
X174065000Y-71779872D01*
X174065000Y-72220128D01*
X174150890Y-72651925D01*
X174319369Y-73058669D01*
X174563962Y-73424729D01*
X174875271Y-73736038D01*
X175241331Y-73980631D01*
X175648075Y-74149110D01*
X176079872Y-74235000D01*
X176520128Y-74235000D01*
X176951925Y-74149110D01*
X177358669Y-73980631D01*
X177724729Y-73736038D01*
X178036038Y-73424729D01*
X178280631Y-73058669D01*
X178449110Y-72651925D01*
X178535000Y-72220128D01*
X178535000Y-71779872D01*
X178449110Y-71348075D01*
X178280631Y-70941331D01*
X178036038Y-70575271D01*
X177724729Y-70263962D01*
X177358669Y-70019369D01*
X176951925Y-69850890D01*
X176520128Y-69765000D01*
X176079872Y-69765000D01*
X175648075Y-69850890D01*
X175241331Y-70019369D01*
X174875271Y-70263962D01*
X174563962Y-70575271D01*
X174319369Y-70941331D01*
X174150890Y-71348075D01*
X174065000Y-71779872D01*
X169440235Y-71779872D01*
X169553475Y-71666632D01*
X169715990Y-71423411D01*
X169827932Y-71153158D01*
X169885000Y-70866260D01*
X169885000Y-70573740D01*
X169827932Y-70286842D01*
X169715990Y-70016589D01*
X169553475Y-69773368D01*
X169346632Y-69566525D01*
X169103411Y-69404010D01*
X168833158Y-69292068D01*
X168546260Y-69235000D01*
X168253740Y-69235000D01*
X168122061Y-69261193D01*
X164299446Y-65438579D01*
X164273291Y-65406709D01*
X164146146Y-65302364D01*
X164001087Y-65224828D01*
X163843689Y-65177082D01*
X163721019Y-65165000D01*
X163721018Y-65165000D01*
X163680000Y-65160960D01*
X163638982Y-65165000D01*
X157446339Y-65165000D01*
X157388405Y-65056613D01*
X157277962Y-64922038D01*
X157143387Y-64811595D01*
X156989851Y-64729528D01*
X156823255Y-64678992D01*
X156650001Y-64661928D01*
X155949999Y-64661928D01*
X155776745Y-64678992D01*
X155610149Y-64729528D01*
X155456613Y-64811595D01*
X155322038Y-64922038D01*
X155300000Y-64948891D01*
X155277962Y-64922038D01*
X155143387Y-64811595D01*
X154989851Y-64729528D01*
X154823255Y-64678992D01*
X154650001Y-64661928D01*
X153949999Y-64661928D01*
X153776745Y-64678992D01*
X153610149Y-64729528D01*
X153456613Y-64811595D01*
X153322038Y-64922038D01*
X153211595Y-65056613D01*
X153129528Y-65210149D01*
X153078992Y-65376745D01*
X153061928Y-65549999D01*
X153061928Y-66057204D01*
X152138579Y-66980554D01*
X152106709Y-67006709D01*
X152048234Y-67077962D01*
X152002364Y-67133855D01*
X151924828Y-67278914D01*
X151877082Y-67436312D01*
X151873348Y-67474221D01*
X151782795Y-67609744D01*
X151704774Y-67798102D01*
X151665000Y-67998061D01*
X151665000Y-68201939D01*
X151704774Y-68401898D01*
X151782795Y-68590256D01*
X151896063Y-68759774D01*
X151923217Y-68786928D01*
X151850000Y-68786928D01*
X151725518Y-68799188D01*
X151605820Y-68835498D01*
X151495506Y-68894463D01*
X151398815Y-68973815D01*
X151319463Y-69070506D01*
X151260498Y-69180820D01*
X151224188Y-69300518D01*
X151211928Y-69425000D01*
X151211928Y-69975000D01*
X151224188Y-70099482D01*
X151224345Y-70100000D01*
X151224188Y-70100518D01*
X151218345Y-70159847D01*
X151114850Y-70104528D01*
X150948254Y-70053992D01*
X150775000Y-70036928D01*
X149825000Y-70036928D01*
X149651746Y-70053992D01*
X149485150Y-70104528D01*
X149331614Y-70186595D01*
X149197038Y-70297038D01*
X149086595Y-70431614D01*
X149004528Y-70585150D01*
X148953992Y-70751746D01*
X148936928Y-70925000D01*
X148936928Y-71600000D01*
X148953992Y-71773254D01*
X149004528Y-71939850D01*
X149086595Y-72093386D01*
X149197038Y-72227962D01*
X149203594Y-72233342D01*
X149123815Y-72298815D01*
X149044463Y-72395506D01*
X148985498Y-72505820D01*
X148949188Y-72625518D01*
X148936928Y-72750000D01*
X148940000Y-73051750D01*
X149098750Y-73210500D01*
X150173000Y-73210500D01*
X150173000Y-73190500D01*
X150427000Y-73190500D01*
X150427000Y-73210500D01*
X150447000Y-73210500D01*
X150447000Y-73464500D01*
X150427000Y-73464500D01*
X150427000Y-73484500D01*
X150173000Y-73484500D01*
X150173000Y-73464500D01*
X149098750Y-73464500D01*
X148940000Y-73623250D01*
X148939575Y-73665000D01*
X148231670Y-73665000D01*
X148238072Y-73600000D01*
X148238072Y-65725000D01*
X148225812Y-65600518D01*
X148189502Y-65480820D01*
X148130537Y-65370506D01*
X148051185Y-65273815D01*
X147954494Y-65194463D01*
X147844180Y-65135498D01*
X147724482Y-65099188D01*
X147600000Y-65086928D01*
X145600000Y-65086928D01*
X145475518Y-65099188D01*
X145355820Y-65135498D01*
X145245506Y-65194463D01*
X145148815Y-65273815D01*
X145069463Y-65370506D01*
X145010498Y-65480820D01*
X144974188Y-65600518D01*
X144961928Y-65725000D01*
X144961928Y-73600000D01*
X144974188Y-73724482D01*
X145010498Y-73844180D01*
X145069463Y-73954494D01*
X145148815Y-74051185D01*
X145165649Y-74065000D01*
X144084702Y-74065000D01*
X144013405Y-73931614D01*
X143902962Y-73797038D01*
X143768386Y-73686595D01*
X143614850Y-73604528D01*
X143448254Y-73553992D01*
X143275000Y-73536928D01*
X142600000Y-73536928D01*
X142426746Y-73553992D01*
X142260150Y-73604528D01*
X142106614Y-73686595D01*
X141972038Y-73797038D01*
X141966658Y-73803594D01*
X141901185Y-73723815D01*
X141804494Y-73644463D01*
X141694180Y-73585498D01*
X141574482Y-73549188D01*
X141450000Y-73536928D01*
X141148250Y-73540000D01*
X140989500Y-73698750D01*
X140735500Y-73698750D01*
X140576750Y-73540000D01*
X140275000Y-73536928D01*
X140150518Y-73549188D01*
X140030820Y-73585498D01*
X139920506Y-73644463D01*
X139823815Y-73723815D01*
X139744463Y-73820506D01*
X139685498Y-73930820D01*
X139649188Y-74050518D01*
X139636928Y-74175000D01*
X137421767Y-74175000D01*
X137551925Y-74149110D01*
X137958669Y-73980631D01*
X138324729Y-73736038D01*
X138636038Y-73424729D01*
X138880631Y-73058669D01*
X139049110Y-72651925D01*
X139135000Y-72220128D01*
X139135000Y-71779872D01*
X139049110Y-71348075D01*
X138880631Y-70941331D01*
X138636038Y-70575271D01*
X138324729Y-70263962D01*
X137958669Y-70019369D01*
X137551925Y-69850890D01*
X137120128Y-69765000D01*
X136679872Y-69765000D01*
X136248075Y-69850890D01*
X135841331Y-70019369D01*
X135475271Y-70263962D01*
X135163962Y-70575271D01*
X134919369Y-70941331D01*
X134750890Y-71348075D01*
X134665000Y-71779872D01*
X133971623Y-71779872D01*
X133971623Y-71164083D01*
X134126197Y-69298643D01*
X134434291Y-67452340D01*
X134893799Y-65637784D01*
X135501582Y-63867372D01*
X136253489Y-62153197D01*
X137144383Y-60506969D01*
X138168179Y-58939933D01*
X139317883Y-57462793D01*
X140585641Y-56085641D01*
X141962793Y-54817883D01*
X143439933Y-53668179D01*
X145006969Y-52644383D01*
X146234877Y-51979872D01*
X154565000Y-51979872D01*
X154565000Y-52420128D01*
X154650890Y-52851925D01*
X154819369Y-53258669D01*
X155063962Y-53624729D01*
X155375271Y-53936038D01*
X155741331Y-54180631D01*
X156148075Y-54349110D01*
X156579872Y-54435000D01*
X157020128Y-54435000D01*
X157451925Y-54349110D01*
X157858669Y-54180631D01*
X158224729Y-53936038D01*
X158536038Y-53624729D01*
X158780631Y-53258669D01*
X158949110Y-52851925D01*
X159035000Y-52420128D01*
X159035000Y-51979872D01*
X158949110Y-51548075D01*
X158780631Y-51141331D01*
X158536038Y-50775271D01*
X158224729Y-50463962D01*
X157858669Y-50219369D01*
X157451925Y-50050890D01*
X157020128Y-49965000D01*
X156579872Y-49965000D01*
X156148075Y-50050890D01*
X155741331Y-50219369D01*
X155375271Y-50463962D01*
X155063962Y-50775271D01*
X154819369Y-51141331D01*
X154650890Y-51548075D01*
X154565000Y-51979872D01*
X146234877Y-51979872D01*
X146653197Y-51753489D01*
X148367372Y-51001582D01*
X150137784Y-50393799D01*
X151952340Y-49934291D01*
X153798643Y-49626197D01*
X155664083Y-49471623D01*
X157535917Y-49471623D01*
X159401357Y-49626197D01*
G04 #@! TA.AperFunction,Conductor*
D18*
G36*
X159401357Y-49626197D02*
G01*
X161247660Y-49934291D01*
X163062216Y-50393799D01*
X164832628Y-51001582D01*
X166546803Y-51753489D01*
X168193031Y-52644383D01*
X169760067Y-53668179D01*
X171237207Y-54817883D01*
X172614359Y-56085641D01*
X173882117Y-57462793D01*
X175031821Y-58939933D01*
X176055617Y-60506969D01*
X176946511Y-62153197D01*
X177698418Y-63867372D01*
X178306201Y-65637784D01*
X178765709Y-67452340D01*
X179073803Y-69298643D01*
X179228377Y-71164083D01*
X179228377Y-73035917D01*
X179073803Y-74901357D01*
X178765709Y-76747660D01*
X178306201Y-78562216D01*
X177698418Y-80332628D01*
X176946511Y-82046803D01*
X176055617Y-83693031D01*
X175031821Y-85260067D01*
X173882117Y-86737207D01*
X172614359Y-88114359D01*
X171237207Y-89382117D01*
X169760067Y-90531821D01*
X168193031Y-91555617D01*
X166546803Y-92446511D01*
X164832628Y-93198418D01*
X163062216Y-93806201D01*
X161247660Y-94265709D01*
X159401357Y-94573803D01*
X157535917Y-94728377D01*
X155664083Y-94728377D01*
X153798643Y-94573803D01*
X151952340Y-94265709D01*
X150137784Y-93806201D01*
X148367372Y-93198418D01*
X146653197Y-92446511D01*
X145236573Y-91679872D01*
X154565000Y-91679872D01*
X154565000Y-92120128D01*
X154650890Y-92551925D01*
X154819369Y-92958669D01*
X155063962Y-93324729D01*
X155375271Y-93636038D01*
X155741331Y-93880631D01*
X156148075Y-94049110D01*
X156579872Y-94135000D01*
X157020128Y-94135000D01*
X157451925Y-94049110D01*
X157858669Y-93880631D01*
X158224729Y-93636038D01*
X158536038Y-93324729D01*
X158780631Y-92958669D01*
X158949110Y-92551925D01*
X159035000Y-92120128D01*
X159035000Y-91679872D01*
X158949110Y-91248075D01*
X158780631Y-90841331D01*
X158536038Y-90475271D01*
X158224729Y-90163962D01*
X157858669Y-89919369D01*
X157451925Y-89750890D01*
X157020128Y-89665000D01*
X156579872Y-89665000D01*
X156148075Y-89750890D01*
X155741331Y-89919369D01*
X155375271Y-90163962D01*
X155063962Y-90475271D01*
X154819369Y-90841331D01*
X154650890Y-91248075D01*
X154565000Y-91679872D01*
X145236573Y-91679872D01*
X145006969Y-91555617D01*
X143439933Y-90531821D01*
X141962793Y-89382117D01*
X140585641Y-88114359D01*
X139317883Y-86737207D01*
X138168179Y-85260067D01*
X137144383Y-83693031D01*
X136253489Y-82046803D01*
X135501582Y-80332628D01*
X134893799Y-78562216D01*
X134656464Y-77625000D01*
X139636928Y-77625000D01*
X139649188Y-77749482D01*
X139685498Y-77869180D01*
X139744463Y-77979494D01*
X139823815Y-78076185D01*
X139920506Y-78155537D01*
X140030820Y-78214502D01*
X140150518Y-78250812D01*
X140275000Y-78263072D01*
X140576750Y-78260000D01*
X140735500Y-78101250D01*
X140735500Y-77027000D01*
X139798750Y-77027000D01*
X139640000Y-77185750D01*
X139636928Y-77625000D01*
X134656464Y-77625000D01*
X134434291Y-76747660D01*
X134246952Y-75625000D01*
X139636928Y-75625000D01*
X139649188Y-75749482D01*
X139685498Y-75869180D01*
X139701972Y-75900000D01*
X139685498Y-75930820D01*
X139649188Y-76050518D01*
X139636928Y-76175000D01*
X139640000Y-76614250D01*
X139798750Y-76773000D01*
X140735500Y-76773000D01*
X140735500Y-75027000D01*
X139798750Y-75027000D01*
X139640000Y-75185750D01*
X139636928Y-75625000D01*
X134246952Y-75625000D01*
X134126197Y-74901357D01*
X133971623Y-73035917D01*
X133971623Y-71779872D01*
X134665000Y-71779872D01*
X134665000Y-72220128D01*
X134750890Y-72651925D01*
X134919369Y-73058669D01*
X135163962Y-73424729D01*
X135475271Y-73736038D01*
X135841331Y-73980631D01*
X136248075Y-74149110D01*
X136679872Y-74235000D01*
X137120128Y-74235000D01*
X137421767Y-74175000D01*
X139636928Y-74175000D01*
X139640000Y-74614250D01*
X139798750Y-74773000D01*
X140735500Y-74773000D01*
X140735500Y-73698750D01*
X140989500Y-73698750D01*
X140989500Y-74773000D01*
X141009500Y-74773000D01*
X141009500Y-75027000D01*
X140989500Y-75027000D01*
X140989500Y-76773000D01*
X141009500Y-76773000D01*
X141009500Y-77027000D01*
X140989500Y-77027000D01*
X140989500Y-78101250D01*
X141148250Y-78260000D01*
X141450000Y-78263072D01*
X141574482Y-78250812D01*
X141694180Y-78214502D01*
X141804494Y-78155537D01*
X141901185Y-78076185D01*
X141966658Y-77996406D01*
X141972038Y-78002962D01*
X142106614Y-78113405D01*
X142260150Y-78195472D01*
X142426746Y-78246008D01*
X142600000Y-78263072D01*
X143275000Y-78263072D01*
X143448254Y-78246008D01*
X143614850Y-78195472D01*
X143768386Y-78113405D01*
X143902962Y-78002962D01*
X144013405Y-77868386D01*
X144084702Y-77735000D01*
X144961928Y-77735000D01*
X144961928Y-85475000D01*
X144974188Y-85599482D01*
X145010498Y-85719180D01*
X145069463Y-85829494D01*
X145148815Y-85926185D01*
X145245506Y-86005537D01*
X145355820Y-86064502D01*
X145475518Y-86100812D01*
X145600000Y-86113072D01*
X147600000Y-86113072D01*
X147724482Y-86100812D01*
X147844180Y-86064502D01*
X147954494Y-86005537D01*
X148051185Y-85926185D01*
X148130537Y-85829494D01*
X148189502Y-85719180D01*
X148225812Y-85599482D01*
X148238072Y-85475000D01*
X148238072Y-77600000D01*
X148225812Y-77475518D01*
X148189502Y-77355820D01*
X148130537Y-77245506D01*
X148051185Y-77148815D01*
X147954494Y-77069463D01*
X147844180Y-77010498D01*
X147724482Y-76974188D01*
X147600000Y-76961928D01*
X147435289Y-76961928D01*
X147435000Y-76958991D01*
X147435000Y-76870867D01*
X148170869Y-76135000D01*
X151550627Y-76135000D01*
X151605820Y-76164502D01*
X151725518Y-76200812D01*
X151850000Y-76213072D01*
X153186928Y-76213072D01*
X153186928Y-77550000D01*
X153199188Y-77674482D01*
X153235498Y-77794180D01*
X153294463Y-77904494D01*
X153373815Y-78001185D01*
X153470506Y-78080537D01*
X153580820Y-78139502D01*
X153700518Y-78175812D01*
X153825000Y-78188072D01*
X154375000Y-78188072D01*
X154499482Y-78175812D01*
X154500000Y-78175655D01*
X154500518Y-78175812D01*
X154625000Y-78188072D01*
X155175000Y-78188072D01*
X155299482Y-78175812D01*
X155300000Y-78175655D01*
X155300518Y-78175812D01*
X155425000Y-78188072D01*
X155975000Y-78188072D01*
X156099482Y-78175812D01*
X156100000Y-78175655D01*
X156100518Y-78175812D01*
X156225000Y-78188072D01*
X156775000Y-78188072D01*
X156899482Y-78175812D01*
X156900000Y-78175655D01*
X156900518Y-78175812D01*
X157025000Y-78188072D01*
X157575000Y-78188072D01*
X157699482Y-78175812D01*
X157700000Y-78175655D01*
X157700518Y-78175812D01*
X157825000Y-78188072D01*
X158375000Y-78188072D01*
X158499482Y-78175812D01*
X158500000Y-78175655D01*
X158500518Y-78175812D01*
X158625000Y-78188072D01*
X159175000Y-78188072D01*
X159299482Y-78175812D01*
X159300000Y-78175655D01*
X159300518Y-78175812D01*
X159425000Y-78188072D01*
X159975000Y-78188072D01*
X160099482Y-78175812D01*
X160219180Y-78139502D01*
X160329494Y-78080537D01*
X160426185Y-78001185D01*
X160505537Y-77904494D01*
X160564502Y-77794180D01*
X160583172Y-77732633D01*
X160709744Y-77817205D01*
X160898102Y-77895226D01*
X161098061Y-77935000D01*
X161301939Y-77935000D01*
X161501898Y-77895226D01*
X161690256Y-77817205D01*
X161859774Y-77703937D01*
X162003937Y-77559774D01*
X162117205Y-77390256D01*
X162195226Y-77201898D01*
X162232689Y-77013557D01*
X162275908Y-77056776D01*
X162304774Y-77201898D01*
X162382795Y-77390256D01*
X162496063Y-77559774D01*
X162640226Y-77703937D01*
X162809744Y-77817205D01*
X162998102Y-77895226D01*
X163198061Y-77935000D01*
X163401939Y-77935000D01*
X163601898Y-77895226D01*
X163790256Y-77817205D01*
X163959774Y-77703937D01*
X164103937Y-77559774D01*
X164217205Y-77390256D01*
X164295226Y-77201898D01*
X164335000Y-77001939D01*
X164335000Y-76798061D01*
X164302565Y-76635000D01*
X164631935Y-76635000D01*
X164706525Y-76746632D01*
X164913368Y-76953475D01*
X165125001Y-77094883D01*
X165125000Y-81271935D01*
X165013368Y-81346525D01*
X164806525Y-81553368D01*
X164644010Y-81796589D01*
X164532068Y-82066842D01*
X164475000Y-82353740D01*
X164475000Y-82646260D01*
X164532068Y-82933158D01*
X164644010Y-83203411D01*
X164806525Y-83446632D01*
X165013368Y-83653475D01*
X165256589Y-83815990D01*
X165526842Y-83927932D01*
X165813740Y-83985000D01*
X166106260Y-83985000D01*
X166393158Y-83927932D01*
X166663411Y-83815990D01*
X166906632Y-83653475D01*
X167038487Y-83521620D01*
X167060498Y-83594180D01*
X167119463Y-83704494D01*
X167198815Y-83801185D01*
X167295506Y-83880537D01*
X167405820Y-83939502D01*
X167525518Y-83975812D01*
X167650000Y-83988072D01*
X168214250Y-83985000D01*
X168373000Y-83826250D01*
X168373000Y-82627000D01*
X168627000Y-82627000D01*
X168627000Y-83826250D01*
X168785750Y-83985000D01*
X169350000Y-83988072D01*
X169474482Y-83975812D01*
X169594180Y-83939502D01*
X169704494Y-83880537D01*
X169801185Y-83801185D01*
X169880537Y-83704494D01*
X169939502Y-83594180D01*
X169975812Y-83474482D01*
X169988072Y-83350000D01*
X169985000Y-82785750D01*
X169826250Y-82627000D01*
X168627000Y-82627000D01*
X168373000Y-82627000D01*
X168353000Y-82627000D01*
X168353000Y-82373000D01*
X168373000Y-82373000D01*
X168373000Y-81173750D01*
X168627000Y-81173750D01*
X168627000Y-82373000D01*
X169826250Y-82373000D01*
X169985000Y-82214250D01*
X169988072Y-81650000D01*
X169975812Y-81525518D01*
X169939502Y-81405820D01*
X169880537Y-81295506D01*
X169801185Y-81198815D01*
X169704494Y-81119463D01*
X169594180Y-81060498D01*
X169474482Y-81024188D01*
X169350000Y-81011928D01*
X168785750Y-81015000D01*
X168627000Y-81173750D01*
X168373000Y-81173750D01*
X168214250Y-81015000D01*
X167650000Y-81011928D01*
X167525518Y-81024188D01*
X167405820Y-81060498D01*
X167295506Y-81119463D01*
X167198815Y-81198815D01*
X167119463Y-81295506D01*
X167060498Y-81405820D01*
X167038487Y-81478380D01*
X166906632Y-81346525D01*
X166795000Y-81271935D01*
X166795000Y-76961247D01*
X166806632Y-76953475D01*
X166938487Y-76821620D01*
X166960498Y-76894180D01*
X167019463Y-77004494D01*
X167098815Y-77101185D01*
X167195506Y-77180537D01*
X167305820Y-77239502D01*
X167425518Y-77275812D01*
X167550000Y-77288072D01*
X169250000Y-77288072D01*
X169374482Y-77275812D01*
X169494180Y-77239502D01*
X169604494Y-77180537D01*
X169701185Y-77101185D01*
X169780537Y-77004494D01*
X169839502Y-76894180D01*
X169875812Y-76774482D01*
X169888072Y-76650000D01*
X169888072Y-74950000D01*
X169875812Y-74825518D01*
X169839502Y-74705820D01*
X169780537Y-74595506D01*
X169701185Y-74498815D01*
X169604494Y-74419463D01*
X169494180Y-74360498D01*
X169421620Y-74338487D01*
X169553475Y-74206632D01*
X169715990Y-73963411D01*
X169827932Y-73693158D01*
X169885000Y-73406260D01*
X169885000Y-73113740D01*
X169827932Y-72826842D01*
X169715990Y-72556589D01*
X169553475Y-72313368D01*
X169346632Y-72106525D01*
X169172240Y-71990000D01*
X169346632Y-71873475D01*
X169440235Y-71779872D01*
X174065000Y-71779872D01*
X174065000Y-72220128D01*
X174150890Y-72651925D01*
X174319369Y-73058669D01*
X174563962Y-73424729D01*
X174875271Y-73736038D01*
X175241331Y-73980631D01*
X175648075Y-74149110D01*
X176079872Y-74235000D01*
X176520128Y-74235000D01*
X176951925Y-74149110D01*
X177358669Y-73980631D01*
X177724729Y-73736038D01*
X178036038Y-73424729D01*
X178280631Y-73058669D01*
X178449110Y-72651925D01*
X178535000Y-72220128D01*
X178535000Y-71779872D01*
X178449110Y-71348075D01*
X178280631Y-70941331D01*
X178036038Y-70575271D01*
X177724729Y-70263962D01*
X177358669Y-70019369D01*
X176951925Y-69850890D01*
X176520128Y-69765000D01*
X176079872Y-69765000D01*
X175648075Y-69850890D01*
X175241331Y-70019369D01*
X174875271Y-70263962D01*
X174563962Y-70575271D01*
X174319369Y-70941331D01*
X174150890Y-71348075D01*
X174065000Y-71779872D01*
X169440235Y-71779872D01*
X169553475Y-71666632D01*
X169715990Y-71423411D01*
X169827932Y-71153158D01*
X169885000Y-70866260D01*
X169885000Y-70573740D01*
X169827932Y-70286842D01*
X169715990Y-70016589D01*
X169553475Y-69773368D01*
X169346632Y-69566525D01*
X169103411Y-69404010D01*
X168833158Y-69292068D01*
X168546260Y-69235000D01*
X168253740Y-69235000D01*
X168122061Y-69261193D01*
X164299446Y-65438579D01*
X164273291Y-65406709D01*
X164146146Y-65302364D01*
X164001087Y-65224828D01*
X163843689Y-65177082D01*
X163721019Y-65165000D01*
X163721018Y-65165000D01*
X163680000Y-65160960D01*
X163638982Y-65165000D01*
X157446339Y-65165000D01*
X157388405Y-65056613D01*
X157277962Y-64922038D01*
X157143387Y-64811595D01*
X156989851Y-64729528D01*
X156823255Y-64678992D01*
X156650001Y-64661928D01*
X155949999Y-64661928D01*
X155776745Y-64678992D01*
X155610149Y-64729528D01*
X155456613Y-64811595D01*
X155322038Y-64922038D01*
X155300000Y-64948891D01*
X155277962Y-64922038D01*
X155143387Y-64811595D01*
X154989851Y-64729528D01*
X154823255Y-64678992D01*
X154650001Y-64661928D01*
X153949999Y-64661928D01*
X153776745Y-64678992D01*
X153610149Y-64729528D01*
X153456613Y-64811595D01*
X153322038Y-64922038D01*
X153211595Y-65056613D01*
X153129528Y-65210149D01*
X153078992Y-65376745D01*
X153061928Y-65549999D01*
X153061928Y-66057204D01*
X152138579Y-66980554D01*
X152106709Y-67006709D01*
X152048234Y-67077962D01*
X152002364Y-67133855D01*
X151924828Y-67278914D01*
X151877082Y-67436312D01*
X151873348Y-67474221D01*
X151782795Y-67609744D01*
X151704774Y-67798102D01*
X151665000Y-67998061D01*
X151665000Y-68201939D01*
X151704774Y-68401898D01*
X151782795Y-68590256D01*
X151896063Y-68759774D01*
X151923217Y-68786928D01*
X151850000Y-68786928D01*
X151725518Y-68799188D01*
X151605820Y-68835498D01*
X151495506Y-68894463D01*
X151398815Y-68973815D01*
X151319463Y-69070506D01*
X151260498Y-69180820D01*
X151224188Y-69300518D01*
X151211928Y-69425000D01*
X151211928Y-69975000D01*
X151224188Y-70099482D01*
X151224345Y-70100000D01*
X151224188Y-70100518D01*
X151218345Y-70159847D01*
X151114850Y-70104528D01*
X150948254Y-70053992D01*
X150775000Y-70036928D01*
X149825000Y-70036928D01*
X149651746Y-70053992D01*
X149485150Y-70104528D01*
X149331614Y-70186595D01*
X149197038Y-70297038D01*
X149086595Y-70431614D01*
X149004528Y-70585150D01*
X148953992Y-70751746D01*
X148936928Y-70925000D01*
X148936928Y-71600000D01*
X148953992Y-71773254D01*
X149004528Y-71939850D01*
X149086595Y-72093386D01*
X149197038Y-72227962D01*
X149203594Y-72233342D01*
X149123815Y-72298815D01*
X149044463Y-72395506D01*
X148985498Y-72505820D01*
X148949188Y-72625518D01*
X148936928Y-72750000D01*
X148940000Y-73051750D01*
X149098750Y-73210500D01*
X150173000Y-73210500D01*
X150173000Y-73190500D01*
X150427000Y-73190500D01*
X150427000Y-73210500D01*
X150447000Y-73210500D01*
X150447000Y-73464500D01*
X150427000Y-73464500D01*
X150427000Y-73484500D01*
X150173000Y-73484500D01*
X150173000Y-73464500D01*
X149098750Y-73464500D01*
X148940000Y-73623250D01*
X148939575Y-73665000D01*
X148231670Y-73665000D01*
X148238072Y-73600000D01*
X148238072Y-65725000D01*
X148225812Y-65600518D01*
X148189502Y-65480820D01*
X148130537Y-65370506D01*
X148051185Y-65273815D01*
X147954494Y-65194463D01*
X147844180Y-65135498D01*
X147724482Y-65099188D01*
X147600000Y-65086928D01*
X145600000Y-65086928D01*
X145475518Y-65099188D01*
X145355820Y-65135498D01*
X145245506Y-65194463D01*
X145148815Y-65273815D01*
X145069463Y-65370506D01*
X145010498Y-65480820D01*
X144974188Y-65600518D01*
X144961928Y-65725000D01*
X144961928Y-73600000D01*
X144974188Y-73724482D01*
X145010498Y-73844180D01*
X145069463Y-73954494D01*
X145148815Y-74051185D01*
X145165649Y-74065000D01*
X144084702Y-74065000D01*
X144013405Y-73931614D01*
X143902962Y-73797038D01*
X143768386Y-73686595D01*
X143614850Y-73604528D01*
X143448254Y-73553992D01*
X143275000Y-73536928D01*
X142600000Y-73536928D01*
X142426746Y-73553992D01*
X142260150Y-73604528D01*
X142106614Y-73686595D01*
X141972038Y-73797038D01*
X141966658Y-73803594D01*
X141901185Y-73723815D01*
X141804494Y-73644463D01*
X141694180Y-73585498D01*
X141574482Y-73549188D01*
X141450000Y-73536928D01*
X141148250Y-73540000D01*
X140989500Y-73698750D01*
X140735500Y-73698750D01*
X140576750Y-73540000D01*
X140275000Y-73536928D01*
X140150518Y-73549188D01*
X140030820Y-73585498D01*
X139920506Y-73644463D01*
X139823815Y-73723815D01*
X139744463Y-73820506D01*
X139685498Y-73930820D01*
X139649188Y-74050518D01*
X139636928Y-74175000D01*
X137421767Y-74175000D01*
X137551925Y-74149110D01*
X137958669Y-73980631D01*
X138324729Y-73736038D01*
X138636038Y-73424729D01*
X138880631Y-73058669D01*
X139049110Y-72651925D01*
X139135000Y-72220128D01*
X139135000Y-71779872D01*
X139049110Y-71348075D01*
X138880631Y-70941331D01*
X138636038Y-70575271D01*
X138324729Y-70263962D01*
X137958669Y-70019369D01*
X137551925Y-69850890D01*
X137120128Y-69765000D01*
X136679872Y-69765000D01*
X136248075Y-69850890D01*
X135841331Y-70019369D01*
X135475271Y-70263962D01*
X135163962Y-70575271D01*
X134919369Y-70941331D01*
X134750890Y-71348075D01*
X134665000Y-71779872D01*
X133971623Y-71779872D01*
X133971623Y-71164083D01*
X134126197Y-69298643D01*
X134434291Y-67452340D01*
X134893799Y-65637784D01*
X135501582Y-63867372D01*
X136253489Y-62153197D01*
X137144383Y-60506969D01*
X138168179Y-58939933D01*
X139317883Y-57462793D01*
X140585641Y-56085641D01*
X141962793Y-54817883D01*
X143439933Y-53668179D01*
X145006969Y-52644383D01*
X146234877Y-51979872D01*
X154565000Y-51979872D01*
X154565000Y-52420128D01*
X154650890Y-52851925D01*
X154819369Y-53258669D01*
X155063962Y-53624729D01*
X155375271Y-53936038D01*
X155741331Y-54180631D01*
X156148075Y-54349110D01*
X156579872Y-54435000D01*
X157020128Y-54435000D01*
X157451925Y-54349110D01*
X157858669Y-54180631D01*
X158224729Y-53936038D01*
X158536038Y-53624729D01*
X158780631Y-53258669D01*
X158949110Y-52851925D01*
X159035000Y-52420128D01*
X159035000Y-51979872D01*
X158949110Y-51548075D01*
X158780631Y-51141331D01*
X158536038Y-50775271D01*
X158224729Y-50463962D01*
X157858669Y-50219369D01*
X157451925Y-50050890D01*
X157020128Y-49965000D01*
X156579872Y-49965000D01*
X156148075Y-50050890D01*
X155741331Y-50219369D01*
X155375271Y-50463962D01*
X155063962Y-50775271D01*
X154819369Y-51141331D01*
X154650890Y-51548075D01*
X154565000Y-51979872D01*
X146234877Y-51979872D01*
X146653197Y-51753489D01*
X148367372Y-51001582D01*
X150137784Y-50393799D01*
X151952340Y-49934291D01*
X153798643Y-49626197D01*
X155664083Y-49471623D01*
X157535917Y-49471623D01*
X159401357Y-49626197D01*
G37*
G04 #@! TD.AperFunction*
D17*
X165734132Y-69235000D02*
X165732998Y-69235000D01*
X165732998Y-69399185D01*
X165503109Y-69278519D01*
X165228748Y-69375843D01*
X164978645Y-69524822D01*
X164762412Y-69719731D01*
X164588359Y-69953080D01*
X164463175Y-70215901D01*
X164418524Y-70363110D01*
X164539845Y-70593000D01*
X165733000Y-70593000D01*
X165733000Y-70573000D01*
X165987000Y-70573000D01*
X165987000Y-70593000D01*
X166007000Y-70593000D01*
X166007000Y-70847000D01*
X165987000Y-70847000D01*
X165987000Y-70867000D01*
X165733000Y-70867000D01*
X165733000Y-70847000D01*
X164539845Y-70847000D01*
X164418524Y-71076890D01*
X164463175Y-71224099D01*
X164588359Y-71486920D01*
X164762412Y-71720269D01*
X164978645Y-71915178D01*
X165095534Y-71984805D01*
X164913368Y-72106525D01*
X164706525Y-72313368D01*
X164544010Y-72556589D01*
X164432068Y-72826842D01*
X164375000Y-73113740D01*
X164375000Y-73406260D01*
X164432068Y-73693158D01*
X164544010Y-73963411D01*
X164706525Y-74206632D01*
X164913368Y-74413475D01*
X165087760Y-74530000D01*
X164913368Y-74646525D01*
X164706525Y-74853368D01*
X164631935Y-74965000D01*
X163790871Y-74965000D01*
X162764448Y-73938578D01*
X162738293Y-73906709D01*
X162611148Y-73802364D01*
X162588072Y-73790030D01*
X162588072Y-73425000D01*
X162575812Y-73300518D01*
X162575655Y-73300000D01*
X162575812Y-73299482D01*
X162588072Y-73175000D01*
X162588072Y-72625000D01*
X162575812Y-72500518D01*
X162575467Y-72499380D01*
X162585000Y-72385750D01*
X162492917Y-72293667D01*
X162480537Y-72270506D01*
X162401185Y-72173815D01*
X162311241Y-72100000D01*
X162401185Y-72026185D01*
X162480537Y-71929494D01*
X162492917Y-71906333D01*
X162585000Y-71814250D01*
X162575467Y-71700620D01*
X162575812Y-71699482D01*
X162588072Y-71575000D01*
X162588072Y-71025000D01*
X162575812Y-70900518D01*
X162575655Y-70900000D01*
X162575812Y-70899482D01*
X162588072Y-70775000D01*
X162588072Y-70225000D01*
X162575812Y-70100518D01*
X162575655Y-70100000D01*
X162575812Y-70099482D01*
X162588072Y-69975000D01*
X162588072Y-69425000D01*
X162575812Y-69300518D01*
X162539502Y-69180820D01*
X162480537Y-69070506D01*
X162401185Y-68973815D01*
X162304494Y-68894463D01*
X162194180Y-68835498D01*
X162074482Y-68799188D01*
X161950000Y-68786928D01*
X160613072Y-68786928D01*
X160613072Y-67450000D01*
X160600812Y-67325518D01*
X160564502Y-67205820D01*
X160505537Y-67095506D01*
X160426185Y-66998815D01*
X160329494Y-66919463D01*
X160219180Y-66860498D01*
X160135124Y-66835000D01*
X163334133Y-66835000D01*
X165734132Y-69235000D01*
G04 #@! TA.AperFunction,Conductor*
D18*
G36*
X165734132Y-69235000D02*
G01*
X165732998Y-69235000D01*
X165732998Y-69399185D01*
X165503109Y-69278519D01*
X165228748Y-69375843D01*
X164978645Y-69524822D01*
X164762412Y-69719731D01*
X164588359Y-69953080D01*
X164463175Y-70215901D01*
X164418524Y-70363110D01*
X164539845Y-70593000D01*
X165733000Y-70593000D01*
X165733000Y-70573000D01*
X165987000Y-70573000D01*
X165987000Y-70593000D01*
X166007000Y-70593000D01*
X166007000Y-70847000D01*
X165987000Y-70847000D01*
X165987000Y-70867000D01*
X165733000Y-70867000D01*
X165733000Y-70847000D01*
X164539845Y-70847000D01*
X164418524Y-71076890D01*
X164463175Y-71224099D01*
X164588359Y-71486920D01*
X164762412Y-71720269D01*
X164978645Y-71915178D01*
X165095534Y-71984805D01*
X164913368Y-72106525D01*
X164706525Y-72313368D01*
X164544010Y-72556589D01*
X164432068Y-72826842D01*
X164375000Y-73113740D01*
X164375000Y-73406260D01*
X164432068Y-73693158D01*
X164544010Y-73963411D01*
X164706525Y-74206632D01*
X164913368Y-74413475D01*
X165087760Y-74530000D01*
X164913368Y-74646525D01*
X164706525Y-74853368D01*
X164631935Y-74965000D01*
X163790871Y-74965000D01*
X162764448Y-73938578D01*
X162738293Y-73906709D01*
X162611148Y-73802364D01*
X162588072Y-73790030D01*
X162588072Y-73425000D01*
X162575812Y-73300518D01*
X162575655Y-73300000D01*
X162575812Y-73299482D01*
X162588072Y-73175000D01*
X162588072Y-72625000D01*
X162575812Y-72500518D01*
X162575467Y-72499380D01*
X162585000Y-72385750D01*
X162492917Y-72293667D01*
X162480537Y-72270506D01*
X162401185Y-72173815D01*
X162311241Y-72100000D01*
X162401185Y-72026185D01*
X162480537Y-71929494D01*
X162492917Y-71906333D01*
X162585000Y-71814250D01*
X162575467Y-71700620D01*
X162575812Y-71699482D01*
X162588072Y-71575000D01*
X162588072Y-71025000D01*
X162575812Y-70900518D01*
X162575655Y-70900000D01*
X162575812Y-70899482D01*
X162588072Y-70775000D01*
X162588072Y-70225000D01*
X162575812Y-70100518D01*
X162575655Y-70100000D01*
X162575812Y-70099482D01*
X162588072Y-69975000D01*
X162588072Y-69425000D01*
X162575812Y-69300518D01*
X162539502Y-69180820D01*
X162480537Y-69070506D01*
X162401185Y-68973815D01*
X162304494Y-68894463D01*
X162194180Y-68835498D01*
X162074482Y-68799188D01*
X161950000Y-68786928D01*
X160613072Y-68786928D01*
X160613072Y-67450000D01*
X160600812Y-67325518D01*
X160564502Y-67205820D01*
X160505537Y-67095506D01*
X160426185Y-66998815D01*
X160329494Y-66919463D01*
X160219180Y-66860498D01*
X160135124Y-66835000D01*
X163334133Y-66835000D01*
X165734132Y-69235000D01*
G37*
G04 #@! TD.AperFunction*
D17*
X159300518Y-69675812D02*
X159425000Y-69688072D01*
X159711928Y-69688072D01*
X159711928Y-69975000D01*
X159724188Y-70099482D01*
X159724345Y-70100000D01*
X159724188Y-70100518D01*
X159711928Y-70225000D01*
X159711928Y-70775000D01*
X159724188Y-70899482D01*
X159724345Y-70900000D01*
X159724188Y-70900518D01*
X159711928Y-71025000D01*
X159711928Y-71575000D01*
X159724188Y-71699482D01*
X159724533Y-71700620D01*
X159715000Y-71814250D01*
X159807083Y-71906333D01*
X159819463Y-71929494D01*
X159898815Y-72026185D01*
X159988759Y-72100000D01*
X159898815Y-72173815D01*
X159819463Y-72270506D01*
X159807083Y-72293667D01*
X159715000Y-72385750D01*
X159724533Y-72499380D01*
X159724188Y-72500518D01*
X159711928Y-72625000D01*
X159711928Y-72943987D01*
X159676085Y-72924828D01*
X159518687Y-72877082D01*
X159396017Y-72865000D01*
X159396016Y-72865000D01*
X159354998Y-72860960D01*
X159313980Y-72865000D01*
X155327631Y-72865000D01*
X155432847Y-72759784D01*
X155546115Y-72590266D01*
X155624136Y-72401908D01*
X155663910Y-72201949D01*
X155663910Y-71998071D01*
X155624136Y-71798112D01*
X155546115Y-71609754D01*
X155432847Y-71440236D01*
X155288684Y-71296073D01*
X155119166Y-71182805D01*
X154930808Y-71104784D01*
X154730849Y-71065010D01*
X154526971Y-71065010D01*
X154327012Y-71104784D01*
X154138654Y-71182805D01*
X154085000Y-71218655D01*
X154085000Y-71172998D01*
X153944834Y-71172998D01*
X153980537Y-71129494D01*
X153992917Y-71106333D01*
X154085000Y-71014250D01*
X154075467Y-70900620D01*
X154075812Y-70899482D01*
X154088072Y-70775000D01*
X154088072Y-70225000D01*
X154075812Y-70100518D01*
X154075655Y-70100000D01*
X154075812Y-70099482D01*
X154088072Y-69975000D01*
X154088072Y-69688072D01*
X154375000Y-69688072D01*
X154499482Y-69675812D01*
X154500000Y-69675655D01*
X154500518Y-69675812D01*
X154625000Y-69688072D01*
X155175000Y-69688072D01*
X155299482Y-69675812D01*
X155300000Y-69675655D01*
X155300518Y-69675812D01*
X155425000Y-69688072D01*
X155975000Y-69688072D01*
X156099482Y-69675812D01*
X156100000Y-69675655D01*
X156100518Y-69675812D01*
X156225000Y-69688072D01*
X156775000Y-69688072D01*
X156899482Y-69675812D01*
X156900000Y-69675655D01*
X156900518Y-69675812D01*
X157025000Y-69688072D01*
X157575000Y-69688072D01*
X157699482Y-69675812D01*
X157700000Y-69675655D01*
X157700518Y-69675812D01*
X157825000Y-69688072D01*
X158375000Y-69688072D01*
X158499482Y-69675812D01*
X158500000Y-69675655D01*
X158500518Y-69675812D01*
X158625000Y-69688072D01*
X159175000Y-69688072D01*
X159299482Y-69675812D01*
X159300000Y-69675655D01*
X159300518Y-69675812D01*
G04 #@! TA.AperFunction,Conductor*
D18*
G36*
X159300518Y-69675812D02*
G01*
X159425000Y-69688072D01*
X159711928Y-69688072D01*
X159711928Y-69975000D01*
X159724188Y-70099482D01*
X159724345Y-70100000D01*
X159724188Y-70100518D01*
X159711928Y-70225000D01*
X159711928Y-70775000D01*
X159724188Y-70899482D01*
X159724345Y-70900000D01*
X159724188Y-70900518D01*
X159711928Y-71025000D01*
X159711928Y-71575000D01*
X159724188Y-71699482D01*
X159724533Y-71700620D01*
X159715000Y-71814250D01*
X159807083Y-71906333D01*
X159819463Y-71929494D01*
X159898815Y-72026185D01*
X159988759Y-72100000D01*
X159898815Y-72173815D01*
X159819463Y-72270506D01*
X159807083Y-72293667D01*
X159715000Y-72385750D01*
X159724533Y-72499380D01*
X159724188Y-72500518D01*
X159711928Y-72625000D01*
X159711928Y-72943987D01*
X159676085Y-72924828D01*
X159518687Y-72877082D01*
X159396017Y-72865000D01*
X159396016Y-72865000D01*
X159354998Y-72860960D01*
X159313980Y-72865000D01*
X155327631Y-72865000D01*
X155432847Y-72759784D01*
X155546115Y-72590266D01*
X155624136Y-72401908D01*
X155663910Y-72201949D01*
X155663910Y-71998071D01*
X155624136Y-71798112D01*
X155546115Y-71609754D01*
X155432847Y-71440236D01*
X155288684Y-71296073D01*
X155119166Y-71182805D01*
X154930808Y-71104784D01*
X154730849Y-71065010D01*
X154526971Y-71065010D01*
X154327012Y-71104784D01*
X154138654Y-71182805D01*
X154085000Y-71218655D01*
X154085000Y-71172998D01*
X153944834Y-71172998D01*
X153980537Y-71129494D01*
X153992917Y-71106333D01*
X154085000Y-71014250D01*
X154075467Y-70900620D01*
X154075812Y-70899482D01*
X154088072Y-70775000D01*
X154088072Y-70225000D01*
X154075812Y-70100518D01*
X154075655Y-70100000D01*
X154075812Y-70099482D01*
X154088072Y-69975000D01*
X154088072Y-69688072D01*
X154375000Y-69688072D01*
X154499482Y-69675812D01*
X154500000Y-69675655D01*
X154500518Y-69675812D01*
X154625000Y-69688072D01*
X155175000Y-69688072D01*
X155299482Y-69675812D01*
X155300000Y-69675655D01*
X155300518Y-69675812D01*
X155425000Y-69688072D01*
X155975000Y-69688072D01*
X156099482Y-69675812D01*
X156100000Y-69675655D01*
X156100518Y-69675812D01*
X156225000Y-69688072D01*
X156775000Y-69688072D01*
X156899482Y-69675812D01*
X156900000Y-69675655D01*
X156900518Y-69675812D01*
X157025000Y-69688072D01*
X157575000Y-69688072D01*
X157699482Y-69675812D01*
X157700000Y-69675655D01*
X157700518Y-69675812D01*
X157825000Y-69688072D01*
X158375000Y-69688072D01*
X158499482Y-69675812D01*
X158500000Y-69675655D01*
X158500518Y-69675812D01*
X158625000Y-69688072D01*
X159175000Y-69688072D01*
X159299482Y-69675812D01*
X159300000Y-69675655D01*
X159300518Y-69675812D01*
G37*
G04 #@! TD.AperFunction*
M02*
