G04 #@! TF.GenerationSoftware,KiCad,Pcbnew,(5.1.8-0-10_14)*
G04 #@! TF.CreationDate,2021-10-06T14:58:47+02:00*
G04 #@! TF.ProjectId,ATmega328P-Barebone,41546d65-6761-4333-9238-502d42617265,rev?*
G04 #@! TF.SameCoordinates,Original*
G04 #@! TF.FileFunction,Soldermask,Top*
G04 #@! TF.FilePolarity,Negative*
%FSLAX46Y46*%
G04 Gerber Fmt 4.6, Leading zero omitted, Abs format (unit mm)*
G04 Created by KiCad (PCBNEW (5.1.8-0-10_14)) date 2021-10-06 14:58:47*
%MOMM*%
%LPD*%
G01*
G04 APERTURE LIST*
%ADD10R,2.000000X7.875000*%
%ADD11R,0.550000X1.600000*%
%ADD12R,1.600000X0.550000*%
%ADD13O,1.700000X1.700000*%
%ADD14R,1.700000X1.700000*%
%ADD15C,3.200000*%
G04 APERTURE END LIST*
D10*
X146600000Y-81537500D03*
X146600000Y-69662500D03*
D11*
X154100000Y-68250000D03*
X154900000Y-68250000D03*
X155700000Y-68250000D03*
X156500000Y-68250000D03*
X157300000Y-68250000D03*
X158100000Y-68250000D03*
X158900000Y-68250000D03*
X159700000Y-68250000D03*
D12*
X161150000Y-69700000D03*
X161150000Y-70500000D03*
X161150000Y-71300000D03*
X161150000Y-72100000D03*
X161150000Y-72900000D03*
X161150000Y-73700000D03*
X161150000Y-74500000D03*
X161150000Y-75300000D03*
D11*
X159700000Y-76750000D03*
X158900000Y-76750000D03*
X158100000Y-76750000D03*
X157300000Y-76750000D03*
X156500000Y-76750000D03*
X155700000Y-76750000D03*
X154900000Y-76750000D03*
X154100000Y-76750000D03*
D12*
X152650000Y-75300000D03*
X152650000Y-74500000D03*
X152650000Y-73700000D03*
X152650000Y-72900000D03*
X152650000Y-72100000D03*
X152650000Y-71300000D03*
X152650000Y-70500000D03*
X152650000Y-69700000D03*
G36*
G01*
X155700000Y-66450001D02*
X155700000Y-65549999D01*
G75*
G02*
X155949999Y-65300000I249999J0D01*
G01*
X156650001Y-65300000D01*
G75*
G02*
X156900000Y-65549999I0J-249999D01*
G01*
X156900000Y-66450001D01*
G75*
G02*
X156650001Y-66700000I-249999J0D01*
G01*
X155949999Y-66700000D01*
G75*
G02*
X155700000Y-66450001I0J249999D01*
G01*
G37*
G36*
G01*
X153700000Y-66450001D02*
X153700000Y-65549999D01*
G75*
G02*
X153949999Y-65300000I249999J0D01*
G01*
X154650001Y-65300000D01*
G75*
G02*
X154900000Y-65549999I0J-249999D01*
G01*
X154900000Y-66450001D01*
G75*
G02*
X154650001Y-66700000I-249999J0D01*
G01*
X153949999Y-66700000D01*
G75*
G02*
X153700000Y-66450001I0J249999D01*
G01*
G37*
D13*
X165860000Y-70720000D03*
X168400000Y-70720000D03*
X165860000Y-73260000D03*
X168400000Y-73260000D03*
X165860000Y-75800000D03*
D14*
X168400000Y-75800000D03*
G36*
G01*
X142350000Y-77375000D02*
X142350000Y-76425000D01*
G75*
G02*
X142600000Y-76175000I250000J0D01*
G01*
X143275000Y-76175000D01*
G75*
G02*
X143525000Y-76425000I0J-250000D01*
G01*
X143525000Y-77375000D01*
G75*
G02*
X143275000Y-77625000I-250000J0D01*
G01*
X142600000Y-77625000D01*
G75*
G02*
X142350000Y-77375000I0J250000D01*
G01*
G37*
G36*
G01*
X140275000Y-77375000D02*
X140275000Y-76425000D01*
G75*
G02*
X140525000Y-76175000I250000J0D01*
G01*
X141200000Y-76175000D01*
G75*
G02*
X141450000Y-76425000I0J-250000D01*
G01*
X141450000Y-77375000D01*
G75*
G02*
X141200000Y-77625000I-250000J0D01*
G01*
X140525000Y-77625000D01*
G75*
G02*
X140275000Y-77375000I0J250000D01*
G01*
G37*
G36*
G01*
X142350000Y-75375000D02*
X142350000Y-74425000D01*
G75*
G02*
X142600000Y-74175000I250000J0D01*
G01*
X143275000Y-74175000D01*
G75*
G02*
X143525000Y-74425000I0J-250000D01*
G01*
X143525000Y-75375000D01*
G75*
G02*
X143275000Y-75625000I-250000J0D01*
G01*
X142600000Y-75625000D01*
G75*
G02*
X142350000Y-75375000I0J250000D01*
G01*
G37*
G36*
G01*
X140275000Y-75375000D02*
X140275000Y-74425000D01*
G75*
G02*
X140525000Y-74175000I250000J0D01*
G01*
X141200000Y-74175000D01*
G75*
G02*
X141450000Y-74425000I0J-250000D01*
G01*
X141450000Y-75375000D01*
G75*
G02*
X141200000Y-75625000I-250000J0D01*
G01*
X140525000Y-75625000D01*
G75*
G02*
X140275000Y-75375000I0J250000D01*
G01*
G37*
G36*
G01*
X149825000Y-72750000D02*
X150775000Y-72750000D01*
G75*
G02*
X151025000Y-73000000I0J-250000D01*
G01*
X151025000Y-73675000D01*
G75*
G02*
X150775000Y-73925000I-250000J0D01*
G01*
X149825000Y-73925000D01*
G75*
G02*
X149575000Y-73675000I0J250000D01*
G01*
X149575000Y-73000000D01*
G75*
G02*
X149825000Y-72750000I250000J0D01*
G01*
G37*
G36*
G01*
X149825000Y-70675000D02*
X150775000Y-70675000D01*
G75*
G02*
X151025000Y-70925000I0J-250000D01*
G01*
X151025000Y-71600000D01*
G75*
G02*
X150775000Y-71850000I-250000J0D01*
G01*
X149825000Y-71850000D01*
G75*
G02*
X149575000Y-71600000I0J250000D01*
G01*
X149575000Y-70925000D01*
G75*
G02*
X149825000Y-70675000I250000J0D01*
G01*
G37*
D15*
X136900000Y-72000000D03*
X176300000Y-72000000D03*
X156800000Y-52200000D03*
X156800000Y-91900000D03*
D13*
X165960000Y-82500000D03*
D14*
X168500000Y-82500000D03*
M02*
